<svg width="124" height="91" viewBox="0 0 124 91" fill="none" xmlns="http://www.w3.org/2000/svg">
<g clip-path="url(#clip0_2003_1381)">
<path fill-rule="evenodd" clip-rule="evenodd" d="M94.3868 41.1855C94.9404 41.5971 95.3216 42.1984 95.4561 42.8735C95.735 44.3551 95.8826 45.8961 95.8826 47.4823C95.8826 59.6994 87.2236 69.2082 74.5827 69.2082C61.942 69.2082 53.2831 59.6994 53.2831 47.4823C53.2831 35.3282 61.942 25.8191 74.5827 25.8191C75.4622 25.8191 76.3225 25.8649 77.1621 25.9549C80.5146 26.2989 83.5177 28.1711 85.2944 31.0246C87.9694 35.0514 91.6697 39.1229 93.262 40.3364C93.6302 40.6167 94.0053 40.9013 94.3868 41.1855ZM74.5827 60.4551C82.42 60.4551 86.3388 55.0392 86.3388 47.4823C86.3388 39.9881 82.42 34.5096 74.5827 34.5096C66.8086 34.5096 62.8269 39.9881 62.8269 47.4823C62.8269 55.0392 66.8086 60.4551 74.5827 60.4551ZM9.0383 68.6416H0V26.4487H9.0383V38.4138L8.78538 46.3487L14.6633 39.1695L26.1032 26.4487H36.7216L21.9951 43.1371L37.3535 68.6416H26.9249L15.6114 49.6863L9.0383 56.8025V68.6416ZM49.9309 68.6416H40.8929V26.4487H49.9309V68.6416Z" fill="#001A89"/>
<path d="M45.8998 87.7226C45.304 87.7226 44.7691 87.599 44.2955 87.3512C43.8217 87.1037 43.4419 86.7615 43.1564 86.325C42.8708 85.8889 42.7116 85.3902 42.6786 84.8291V82.4855C42.7116 81.9192 42.8736 81.4183 43.1648 80.9833C43.456 80.5482 43.8389 80.2084 44.3142 79.9634C44.7891 79.7187 45.3177 79.5962 45.8998 79.5962C46.6168 79.5962 47.2621 79.7769 47.836 80.1381C48.41 80.4993 48.8639 80.9861 49.1972 81.5989C49.5309 82.2121 49.6978 82.9041 49.6978 83.6759C49.6978 84.4364 49.5316 85.1228 49.1993 85.7342C48.867 86.3457 48.4132 86.8301 47.8381 87.1871C47.2628 87.5441 46.6168 87.7226 45.8998 87.7226ZM45.6529 86.3233C46.1471 86.3233 46.5823 86.2102 46.9585 85.9844C47.3348 85.7587 47.6305 85.4448 47.8462 85.0426C48.0619 84.6405 48.1697 84.1791 48.1697 83.6594C48.1697 83.1368 48.0619 82.6752 47.8462 82.2741C47.6305 81.8734 47.3355 81.5601 46.9607 81.3344C46.5859 81.1086 46.1538 80.9959 45.6652 80.9959C45.1762 80.9959 44.7438 81.1086 44.3675 81.3344C43.9913 81.5601 43.6987 81.8734 43.4901 82.2741C43.2814 82.6752 43.1771 83.1383 43.1771 83.6636C43.1771 84.1834 43.2807 84.644 43.488 85.0447C43.6956 85.4455 43.9864 85.7587 44.3612 85.9844C44.7364 86.2102 45.1667 86.3233 45.6529 86.3233ZM41.7808 87.5584V75.8365H43.2677V81.6728L42.9916 83.5568L43.2677 85.4654V87.5584H41.7808Z" fill="#001A89"/>
<path d="M53.6485 87.62L50.2583 79.7604H51.8935L54.4146 85.9169H53.8873L56.5444 79.7604H58.1918L54.5382 87.62H53.6485ZM51.4115 90.8256L53.7061 86.1178L54.5382 87.62L53.0552 90.8256H51.4115Z" fill="#001A89"/>
<path d="M65.6595 87.5584L62.0635 79.7604H63.7113L66.5988 86.3477H65.6391L68.5431 79.7604H70.1291L66.5247 87.5584H65.6595Z" fill="#001A89"/>
<path d="M74.7181 87.7225C73.9355 87.7225 73.2326 87.5461 72.6091 87.1933C71.9856 86.8401 71.4927 86.355 71.1302 85.7383C70.7677 85.1213 70.5864 84.4269 70.5864 83.6551C70.5864 82.8865 70.7645 82.1963 71.12 81.5845C71.4755 80.9731 71.9596 80.4887 72.5722 80.1317C73.1845 79.7747 73.867 79.5962 74.6194 79.5962C75.3416 79.5962 75.9799 79.761 76.5346 80.0907C77.0896 80.4204 77.5255 80.874 77.8427 81.4512C78.1599 82.0287 78.3183 82.6881 78.3183 83.4294C78.3183 83.5389 78.3117 83.6565 78.2976 83.7825C78.2839 83.9085 78.2621 84.0506 78.2319 84.2092H71.6287V82.9821H77.4451L76.9013 83.4542C76.8957 82.9317 76.8012 82.4854 76.6171 82.1162C76.433 81.7469 76.171 81.4617 75.8303 81.2604C75.4899 81.0592 75.0764 80.9587 74.5906 80.9587C74.0795 80.9587 73.6341 81.069 73.2537 81.2891C72.8736 81.5093 72.5782 81.8166 72.3681 82.2107C72.158 82.6044 72.053 83.071 72.053 83.61C72.053 84.1546 72.1637 84.632 72.3846 85.0425C72.6056 85.4531 72.9182 85.7709 73.3218 85.9966C73.7254 86.2224 74.1923 86.3354 74.7223 86.3354C75.159 86.3354 75.5626 86.2574 75.9332 86.1013C76.3041 85.9455 76.6185 85.7156 76.8767 85.4118L77.8283 86.3722C77.4546 86.81 76.9968 87.1446 76.4545 87.3756C75.9121 87.607 75.3332 87.7225 74.7181 87.7225Z" fill="#001A89"/>
<path d="M79.9372 87.5584V79.7604H81.4242V87.5584H79.9372ZM80.6784 78.205C80.4122 78.205 80.1905 78.1133 80.0135 77.9299C79.8361 77.7465 79.7476 77.5221 79.7476 77.2568C79.7476 76.9887 79.8361 76.7644 80.0135 76.5838C80.1905 76.4032 80.4122 76.3129 80.6784 76.3129C80.9559 76.3129 81.1818 76.4032 81.356 76.5838C81.5306 76.7644 81.6177 76.9887 81.6177 77.2568C81.6177 77.5221 81.5306 77.7465 81.356 77.9299C81.1818 78.1133 80.9559 78.205 80.6784 78.205Z" fill="#001A89"/>
<path d="M84.8185 87.5584V76.4935H86.3054V87.5584H84.8185ZM82.8945 81.1023V79.7604H88.2248V81.1023H82.8945Z" fill="#001A89"/>
<path d="M92.7685 87.7225C92.0463 87.7225 91.3954 87.544 90.8158 87.187C90.2365 86.83 89.7785 86.3456 89.4423 85.7341C89.1058 85.1227 88.9375 84.4363 88.9375 83.6758C88.9375 82.9068 89.1058 82.2159 89.4423 81.6031C89.7785 80.9902 90.2358 80.5023 90.8137 80.1401C91.3919 79.7775 92.0407 79.5962 92.7601 79.5962C93.359 79.5962 93.8915 79.7194 94.3584 79.9654C94.8252 80.2118 95.2007 80.5524 95.4849 80.9874C95.7691 81.4225 95.9265 81.9219 95.9567 82.4854V84.829C95.9237 85.3929 95.7673 85.8927 95.487 86.3291C95.207 86.7656 94.8329 87.1068 94.3647 87.3532C93.8965 87.5996 93.3643 87.7225 92.7685 87.7225ZM93.0074 86.3232C93.7461 86.3232 94.3398 86.0761 94.789 85.5822C95.238 85.0884 95.4624 84.4489 95.4624 83.6635C95.4624 83.1354 95.3602 82.6709 95.1554 82.2702C94.951 81.8691 94.664 81.5565 94.2944 81.3322C93.9253 81.1078 93.4935 80.9958 92.9989 80.9958C92.5047 80.9958 92.0681 81.1092 91.689 81.3364C91.3104 81.5635 91.0114 81.8775 90.7933 82.2782C90.5748 82.679 90.4659 83.1396 90.4659 83.6593C90.4659 84.1791 90.5748 84.6397 90.7933 85.0404C91.0114 85.4412 91.3114 85.7551 91.6933 85.9823C92.0751 86.2094 92.5131 86.3232 93.0074 86.3232ZM95.3718 87.5583V85.4653L95.6437 83.5568L95.3718 81.6727V79.7603H96.8587V87.5583H95.3718Z" fill="#001A89"/>
<path d="M100.323 87.7226C100.013 87.7226 99.7576 87.6172 99.557 87.4065C99.3565 87.1958 99.2563 86.9414 99.2563 86.6432C99.2563 86.3341 99.3565 86.0776 99.557 85.8739C99.7576 85.6698 100.013 85.568 100.323 85.568C100.634 85.568 100.889 85.6698 101.089 85.8739C101.29 86.0776 101.39 86.3341 101.39 86.6432C101.39 86.9414 101.29 87.1958 101.089 87.4065C100.889 87.6172 100.634 87.7226 100.323 87.7226Z" fill="#001A89"/>
<path d="M106.824 87.7225C106.101 87.7225 105.451 87.544 104.871 87.187C104.292 86.83 103.834 86.3456 103.497 85.7341C103.161 85.1227 102.993 84.4363 102.993 83.6758C102.993 82.9068 103.161 82.2159 103.497 81.6031C103.834 80.9902 104.291 80.5023 104.869 80.1401C105.447 79.7775 106.096 79.5962 106.815 79.5962C107.414 79.5962 107.947 79.7194 108.414 79.9654C108.88 80.2118 109.256 80.5524 109.54 80.9874C109.824 81.4225 109.982 81.9219 110.012 82.4854V84.829C109.979 85.3929 109.823 85.8927 109.542 86.3291C109.262 86.7656 108.888 87.1068 108.42 87.3532C107.952 87.5996 107.419 87.7225 106.824 87.7225ZM107.063 86.3232C107.801 86.3232 108.395 86.0761 108.844 85.5822C109.293 85.0884 109.518 84.4489 109.518 83.6635C109.518 83.1354 109.415 82.6709 109.211 82.2702C109.006 81.8691 108.719 81.5565 108.35 81.3322C107.98 81.1078 107.548 80.9958 107.054 80.9958C106.56 80.9958 106.123 81.1092 105.744 81.3364C105.365 81.5635 105.067 81.8775 104.848 82.2782C104.63 82.679 104.521 83.1396 104.521 83.6593C104.521 84.1791 104.63 84.6397 104.848 85.0404C105.067 85.4412 105.367 85.7551 105.748 85.9823C106.13 86.2094 106.568 86.3232 107.063 86.3232ZM109.427 87.5583V85.4653L109.699 83.5568L109.427 81.6727V79.7603H110.914V87.5583H109.427Z" fill="#001A89"/>
<path d="M113.089 87.5584V79.7604H114.576V87.5584H113.089ZM113.83 78.205C113.564 78.205 113.342 78.1133 113.165 77.9299C112.987 77.7465 112.899 77.5221 112.899 77.2568C112.899 76.9887 112.987 76.7644 113.165 76.5838C113.342 76.4032 113.564 76.3129 113.83 76.3129C114.107 76.3129 114.333 76.4032 114.507 76.5838C114.682 76.7644 114.769 76.9887 114.769 77.2568C114.769 77.5221 114.682 77.7465 114.507 77.9299C114.333 78.1133 114.107 78.205 113.83 78.205Z" fill="#001A89"/>
<path fill-rule="evenodd" clip-rule="evenodd" d="M110.187 28.3133C110.289 28.5597 110.248 28.8421 110.079 29.0493C109.911 29.2565 109.642 29.3556 109.379 29.3073L106.616 28.8019C106.445 28.7707 106.269 28.8008 106.119 28.8869L103.357 30.4693C103.028 30.6579 102.609 30.5641 102.392 30.2537L99.2127 25.6946C99.1438 25.5959 99.1006 25.4818 99.0869 25.3624C98.9647 24.4328 98.2635 20.2195 95.4428 18.3295C92.9526 16.6611 88.4422 15.2618 86.6016 14.7329C86.3964 14.6745 86.1758 14.7084 85.9981 14.8257C85.8203 14.9433 85.703 15.1319 85.6767 15.343C85.4392 17.3187 84.9994 22.2205 86.2327 23.6751C87.7611 25.4779 90.0002 28.3633 96.8384 27.4719C97.0836 27.44 97.3285 27.5338 97.4886 27.7211C99.3715 29.9352 100.302 31.0027 100.755 31.5112C101.003 31.7583 101.04 32.1454 100.843 32.4345C100.165 33.4317 98.5973 35.7357 97.9154 36.7378C97.7233 37.0202 97.7535 37.3975 97.9878 37.6457C99.148 38.8304 102.694 42.0833 106.862 42.2702C107.101 42.2797 107.297 42.4638 107.32 42.7014C107.344 42.9394 107.187 43.1578 106.953 43.2128C106.297 43.3566 105.504 43.4315 104.564 43.365C101.121 43.1218 97.5891 40.5139 94.5488 38.1976C91.9863 36.245 83.9663 26.8923 83.4773 22.2723C83.465 22.1403 83.4166 22.014 83.3375 21.9072C80.5691 18.1762 77.6177 13.9251 76.9728 12.9927C76.8888 12.8709 76.7697 12.7775 76.6313 12.725L70.5174 10.3971C70.1753 10.2669 69.9824 9.90431 70.0671 9.54906C70.1514 9.19381 70.4865 8.95546 70.8511 8.99186L76.7761 9.58266C76.8797 9.59281 76.9798 9.62536 77.0701 9.67716L83.099 13.1625C84.0987 13.7403 85.3637 13.5776 86.1832 12.7656L86.2327 12.7166L90.9093 9.92076C92.21 9.14306 93.7655 8.90646 95.2398 9.26206L96.8925 9.66036C97.9323 9.91096 99.0219 9.86896 100.039 9.53891L100.845 9.27781C101.802 8.96701 102.839 9.00866 103.768 9.39436L107.272 10.849C107.548 10.9634 107.787 11.15 107.964 11.3894L108.025 11.4706C108.702 12.3837 109.959 12.6462 110.947 12.0803L113.299 10.7345C113.376 10.6901 113.461 10.6603 113.55 10.6463L118.262 9.90746C118.619 9.85146 118.964 10.0643 119.072 10.4083C119.181 10.752 119.021 11.1234 118.696 11.2816L115.676 12.7502C115.601 12.7869 115.532 12.8363 115.474 12.8961L111.876 16.5655C111.827 16.6163 111.77 16.6593 111.707 16.6936C111.059 17.0734 107.503 19.4072 108.575 24.2421C108.583 24.2788 108.594 24.3149 108.608 24.3495C109.381 26.326 109.874 27.5524 110.187 28.3133ZM87.8725 21.6657C87.8093 21.4676 87.8342 21.2524 87.9406 21.0735C88.0474 20.895 88.2252 20.7704 88.43 20.7312C89.5263 20.5233 91.6252 20.3259 93.5652 21.2695C95.172 22.0511 95.9068 23.2936 96.2409 24.2057C96.3199 24.4318 96.282 24.682 96.1397 24.8749C95.9971 25.0677 95.7684 25.178 95.5285 25.1699C95.1488 25.1587 94.6682 25.2007 94.1016 25.368C92.6603 25.7929 89.3285 26.2805 87.8725 21.6657ZM111.434 25.3649C111.252 25.5815 110.96 25.6736 110.686 25.6001C110.412 25.5269 110.205 25.3019 110.156 25.0233C109.98 23.9831 110.032 22.2898 111.743 21.0616C113.858 19.5433 112.79 23.7493 111.434 25.3649ZM104.147 39.8916C103.788 39.7478 103.604 39.3502 103.728 38.9851C103.851 38.6201 104.239 38.4146 104.612 38.5172C105.032 38.6302 105.373 38.7244 105.563 38.7765C105.67 38.8059 105.783 38.8105 105.892 38.7902L108.017 38.3933C108.351 38.3306 108.598 38.0471 108.613 37.709L108.661 36.5999C108.671 36.3717 108.573 36.1519 108.396 36.0066L105.528 33.6459C105.255 33.4215 105.183 33.0344 105.357 32.7268C105.53 32.4195 105.9 32.2802 106.234 32.3964L106.262 32.4065C107.431 32.8195 108.42 33.291 108.931 33.5489C109.161 33.669 109.437 33.6585 109.657 33.5213C110.061 33.2707 110.735 32.851 111.282 32.5101C111.513 32.3663 111.805 32.3621 112.04 32.4996C112.275 32.6368 112.414 32.8927 112.4 33.1636C112.384 33.5171 112.278 33.8888 111.985 34.1884C111.386 34.8009 110.644 35.5712 110.291 35.937C110.161 36.0724 110.087 36.2534 110.087 36.4413V37.751C110.087 38.0895 110.321 38.3831 110.652 38.4601C110.997 38.5483 111.425 38.6446 111.717 38.6432C112.28 38.6404 111.291 40.0547 110.087 40.3358C109.138 40.5577 107.305 40.5402 106.575 40.523C106.338 40.5171 106.103 40.4894 105.871 40.4401C105.493 40.3498 104.87 40.1828 104.147 39.8916ZM65.4316 11.459C65.3431 11.1927 65.4158 10.899 65.6192 10.7048C65.8223 10.5102 66.1198 10.4493 66.3832 10.5483C68.9925 11.5283 74.5918 13.6318 75.7409 14.0637C75.8768 14.1148 75.9945 14.2051 76.0788 14.3231L80.3043 20.2458C80.4722 20.481 80.4848 20.7928 80.3366 21.0406C80.1883 21.2888 79.907 21.426 79.6196 21.391C77.4575 21.1239 73.532 20.3893 70.4949 18.4188C67.4827 16.4637 66.0432 13.2867 65.4316 11.459ZM114.162 20.7627C114.146 20.7459 114.136 20.7242 114.133 20.7011C114.09 20.4187 113.835 18.4891 113.729 17.6925C113.701 17.4755 113.772 17.2571 113.923 17.0979L116.541 14.3304C116.603 14.265 116.677 14.2114 116.759 14.1726L122.664 11.374C122.921 11.2525 123.224 11.2896 123.443 11.4692C123.662 11.6487 123.757 11.9385 123.687 12.2122C123.213 14.0487 121.99 17.171 118.96 18.864C115.111 21.0151 114.31 20.8502 114.162 20.7627ZM86.0631 10.9914C85.8959 11.094 85.6942 11.1251 85.5035 11.0775C85.3131 11.0303 85.1497 10.9088 85.05 10.7401L81.9426 5.47646C81.8825 5.37496 81.7986 5.28921 81.6981 5.22691L77.1723 2.42691C77.1284 2.39996 77.0817 2.37756 77.0328 2.36006C76.7135 2.23966 75.5614 1.70346 75.8603 0.421407C76.1806 -0.953743 83.6663 1.44516 84.7588 1.80321C84.8466 1.83226 84.9281 1.87776 84.9991 1.93726L90.9128 6.89921C91.0923 7.05006 91.1885 7.27756 91.1709 7.51066C91.1534 7.74411 91.0245 7.95481 90.8246 8.07731L86.0631 10.9914ZM102.028 7.14736C101.829 7.21946 101.607 7.19146 101.432 7.07211C101.257 6.95276 101.151 6.75641 101.147 6.54536L101.08 3.27251C101.078 3.15561 101.047 3.04081 100.99 2.93791L100.504 2.05171C100.35 1.77206 100.397 1.42521 100.62 1.19596C100.842 0.966707 101.188 0.908257 101.474 1.05141L105.266 2.95331C105.446 3.04326 105.58 3.20286 105.638 3.39466L106.978 7.84631C107.059 8.11651 106.977 8.40946 106.765 8.59776C106.555 8.78641 106.253 8.83646 105.992 8.72621L102.267 7.15331C102.191 7.12146 102.106 7.11936 102.028 7.14736Z" fill="#0038FF"/>
</g>
<defs>
<clipPath id="clip0_2003_1381">
<rect width="124" height="91" fill="white"/>
</clipPath>
</defs>
</svg>
