<svg width="1464" height="1069" viewBox="0 0 1464 1069" fill="none" xmlns="http://www.w3.org/2000/svg">
<g opacity="0.2">
<path d="M1039.98 -2025L-580 -405.018L1039.98 1214.96L2659.96 -405.018L1039.98 -2025Z" stroke="#0038FF"/>
<path d="M1039.98 -1943.97L-498.972 -405.017L1039.98 1133.94L2578.93 -405.017L1039.98 -1943.97Z" stroke="#0038FF"/>
<path d="M1039.98 -1865.29L-420.292 -405.018L1039.98 1055.26L2500.26 -405.018L1039.98 -1865.29Z" stroke="#0038FF"/>
<path d="M1039.98 -1788.96L-343.961 -405.018L1039.98 978.925L2423.92 -405.018L1039.98 -1788.96Z" stroke="#0038FF"/>
<path d="M1039.98 -1714.98L-269.979 -405.018L1039.98 904.943L2349.94 -405.018L1039.98 -1714.98Z" stroke="#0038FF"/>
<path d="M1039.98 -1643.34L-198.346 -405.018L1039.98 833.309L2278.31 -405.018L1039.98 -1643.34Z" stroke="#0038FF"/>
<path d="M1039.98 -1574.06L-129.061 -405.017L1039.98 764.025L2209.02 -405.017L1039.98 -1574.06Z" stroke="#0038FF"/>
<path d="M1039.98 -1507.12L-62.1245 -405.017L1039.98 697.089L2142.09 -405.017L1039.98 -1507.12Z" stroke="#0038FF"/>
<path d="M1039.98 -1442.54L2.46338 -405.017L1039.98 632.501L2077.5 -405.017L1039.98 -1442.54Z" stroke="#0038FF"/>
<path d="M1039.98 -1380.3L64.7026 -405.018L1039.98 570.261L2015.26 -405.018L1039.98 -1380.3Z" stroke="#0038FF"/>
<path d="M1039.98 -1320.41L124.593 -405.018L1039.98 510.371L1955.37 -405.018L1039.98 -1320.41Z" stroke="#0038FF"/>
<path d="M1039.98 -1262.86L182.135 -405.018L1039.98 452.829L1897.83 -405.018L1039.98 -1262.86Z" stroke="#0038FF"/>
<path d="M1039.98 -1207.67L237.328 -405.017L1039.98 397.637L1842.64 -405.017L1039.98 -1207.67Z" stroke="#0038FF"/>
<path d="M1039.98 -1154.83L290.173 -405.018L1039.98 344.791L1789.79 -405.018L1039.98 -1154.83Z" stroke="#0038FF"/>
<path d="M1039.98 -1104.33L340.667 -405.017L1039.98 294.296L1739.29 -405.017L1039.98 -1104.33Z" stroke="#0038FF"/>
<path d="M1039.98 -1056.18L388.815 -405.018L1039.98 246.149L1691.15 -405.018L1039.98 -1056.18Z" stroke="#0038FF"/>
<path d="M1039.98 -1010.39L434.614 -405.017L1039.98 200.351L1645.35 -405.017L1039.98 -1010.39Z" stroke="#0038FF"/>
<path d="M1039.98 -966.936L478.064 -405.018L1039.98 156.9L1601.9 -405.018L1039.98 -966.936Z" stroke="#0038FF"/>
<path d="M1039.98 -925.834L519.165 -405.017L1039.98 115.8L1560.8 -405.017L1039.98 -925.834Z" stroke="#0038FF"/>
<path d="M1039.98 -887.081L557.917 -405.017L1039.98 77.0468L1522.05 -405.017L1039.98 -887.081Z" stroke="#0038FF"/>
<path d="M1039.98 -850.678L594.322 -405.017L1039.98 40.6428L1485.64 -405.017L1039.98 -850.678Z" stroke="#0038FF"/>
<path d="M1039.98 -816.622L628.377 -405.017L1039.98 6.58739L1451.59 -405.017L1039.98 -816.622Z" stroke="#0038FF"/>
<path d="M1039.98 -223.58V1214.96" stroke="#0038FF"/>
<path d="M1039.98 -223.579V1214.96" stroke="#0038FF"/>
</g>
</svg>
