<?xml version="1.0" encoding="UTF-8" standalone="no"?><!DOCTYPE svg PUBLIC "-//W3C//DTD SVG 1.1//EN" "http://www.w3.org/Graphics/SVG/1.1/DTD/svg11.dtd"><svg width="100%" height="100%" viewBox="0 0 167 35" version="1.1" xmlns="http://www.w3.org/2000/svg" xmlns:xlink="http://www.w3.org/1999/xlink" xml:space="preserve" xmlns:serif="http://www.serif.com/" style="fill-rule:evenodd;clip-rule:evenodd;stroke-linejoin:round;stroke-miterlimit:2;"><g><path d="M19.727,34.169l-19.727,-34.169l13.152,0l13.151,22.779l-6.576,11.39Zm13.152,-22.779l-6.576,-11.39l13.152,0l-6.576,11.39Z" style="fill:#0038ff;"/><g transform="matrix(0.747596,0,0,0.747596,-2119.63,-1546.29)"><g transform="matrix(59.3573,0,0,59.3573,2882,2113.52)"><path d="M0.566,-0.169l-0.098,0c-0.02,0.059 -0.072,0.101 -0.154,0.101c-0.093,0 -0.171,-0.061 -0.178,-0.172l0.438,0c0.002,-0.019 0.003,-0.035 0.003,-0.055c-0,-0.15 -0.104,-0.262 -0.263,-0.262c-0.16,0 -0.271,0.109 -0.271,0.282c-0,0.174 0.115,0.284 0.271,0.284c0.136,-0 0.224,-0.078 0.252,-0.178Zm-0.256,-0.311c0.094,0 0.174,0.059 0.173,0.166l-0.346,-0c0.01,-0.107 0.084,-0.166 0.173,-0.166Z" style="fill-rule:nonzero;"/></g><g transform="matrix(59.3573,0,0,59.3573,2918.8,2113.52)"><path d="M0.124,-0.637c0.033,0 0.06,-0.027 0.06,-0.062c0,-0.035 -0.027,-0.062 -0.06,-0.062c-0.035,0 -0.062,0.027 -0.062,0.062c0,0.035 0.027,0.062 0.062,0.062Zm-0.047,0.637l0.091,-0l0,-0.548l-0.091,0l0,0.548Z" style="fill-rule:nonzero;"/></g><g transform="matrix(59.3573,0,0,59.3573,2933.4,2113.52)"><path d="M0.097,-0.15c0,0.11 0.055,0.15 0.152,0.15l0.082,-0l0,-0.077l-0.067,0c-0.056,0 -0.076,-0.019 -0.076,-0.073l0,-0.323l0.143,-0l0,-0.075l-0.143,-0l0,-0.138l-0.091,-0l0,0.138l-0.071,-0l0,0.075l0.071,-0l0,0.323Z" style="fill-rule:nonzero;"/></g><g transform="matrix(59.3573,0,0,59.3573,2955.01,2113.52)"><path d="M0.043,-0.276c0,0.17 0.113,0.285 0.259,0.285c0.101,-0 0.172,-0.052 0.205,-0.111l0,0.102l0.092,-0l0,-0.548l-0.092,0l0,0.1c-0.032,-0.057 -0.102,-0.109 -0.204,-0.109c-0.147,0 -0.26,0.11 -0.26,0.281Zm0.464,0.001c0,0.129 -0.086,0.204 -0.186,0.204c-0.1,0 -0.185,-0.076 -0.185,-0.205c0,-0.129 0.085,-0.202 0.185,-0.202c0.1,0 0.186,0.076 0.186,0.203Z" style="fill-rule:nonzero;"/></g><g transform="matrix(59.3573,0,0,59.3573,2995.13,2113.52)"><path d="M0.106,0.006c0.033,0 0.06,-0.027 0.06,-0.062c0,-0.035 -0.027,-0.062 -0.06,-0.062c-0.035,-0 -0.062,0.027 -0.062,0.062c0,0.035 0.027,0.062 0.062,0.062Z" style="fill-rule:nonzero;"/></g><g transform="matrix(59.3573,0,0,59.3573,3007.6,2113.52)"><path d="M0.043,-0.276c0,0.17 0.113,0.285 0.259,0.285c0.101,-0 0.172,-0.052 0.205,-0.111l0,0.102l0.092,-0l0,-0.548l-0.092,0l0,0.1c-0.032,-0.057 -0.102,-0.109 -0.204,-0.109c-0.147,0 -0.26,0.11 -0.26,0.281Zm0.464,0.001c0,0.129 -0.086,0.204 -0.186,0.204c-0.1,0 -0.185,-0.076 -0.185,-0.205c0,-0.129 0.085,-0.202 0.185,-0.202c0.1,0 0.186,0.076 0.186,0.203Z" style="fill-rule:nonzero;"/></g><g transform="matrix(59.3573,0,0,59.3573,3047.73,2113.52)"><path d="M0.124,-0.637c0.033,0 0.06,-0.027 0.06,-0.062c0,-0.035 -0.027,-0.062 -0.06,-0.062c-0.035,0 -0.062,0.027 -0.062,0.062c0,0.035 0.027,0.062 0.062,0.062Zm-0.047,0.637l0.091,-0l0,-0.548l-0.091,0l0,0.548Z" style="fill-rule:nonzero;"/></g></g><path d="M19.727,34.169l-19.727,-34.169l13.152,0l13.151,22.779l-6.576,11.39Z" style="fill:#001a89;"/><path d="M19.727,34.169l-19.727,-34.169l13.152,0l13.151,22.779l-6.576,11.39Zm13.152,-22.779l-6.576,-11.39l13.152,0l-6.576,11.39Z" style="fill:#0038ff;"/><g transform="matrix(0.747596,0,0,0.747596,-2119.63,-1546.29)"><g transform="matrix(59.3573,0,0,59.3573,2882,2113.52)"><path d="M0.566,-0.169l-0.098,0c-0.02,0.059 -0.072,0.101 -0.154,0.101c-0.093,0 -0.171,-0.061 -0.178,-0.172l0.438,0c0.002,-0.019 0.003,-0.035 0.003,-0.055c-0,-0.15 -0.104,-0.262 -0.263,-0.262c-0.16,0 -0.271,0.109 -0.271,0.282c-0,0.174 0.115,0.284 0.271,0.284c0.136,-0 0.224,-0.078 0.252,-0.178Zm-0.256,-0.311c0.094,0 0.174,0.059 0.173,0.166l-0.346,-0c0.01,-0.107 0.084,-0.166 0.173,-0.166Z" style="fill-rule:nonzero;"/></g><g transform="matrix(59.3573,0,0,59.3573,2918.8,2113.52)"><path d="M0.124,-0.637c0.033,0 0.06,-0.027 0.06,-0.062c0,-0.035 -0.027,-0.062 -0.06,-0.062c-0.035,0 -0.062,0.027 -0.062,0.062c0,0.035 0.027,0.062 0.062,0.062Zm-0.047,0.637l0.091,-0l0,-0.548l-0.091,0l0,0.548Z" style="fill-rule:nonzero;"/></g><g transform="matrix(59.3573,0,0,59.3573,2933.4,2113.52)"><path d="M0.097,-0.15c0,0.11 0.055,0.15 0.152,0.15l0.082,-0l0,-0.077l-0.067,0c-0.056,0 -0.076,-0.019 -0.076,-0.073l0,-0.323l0.143,-0l0,-0.075l-0.143,-0l0,-0.138l-0.091,-0l0,0.138l-0.071,-0l0,0.075l0.071,-0l0,0.323Z" style="fill-rule:nonzero;"/></g><g transform="matrix(59.3573,0,0,59.3573,2955.01,2113.52)"><path d="M0.043,-0.276c0,0.17 0.113,0.285 0.259,0.285c0.101,-0 0.172,-0.052 0.205,-0.111l0,0.102l0.092,-0l0,-0.548l-0.092,0l0,0.1c-0.032,-0.057 -0.102,-0.109 -0.204,-0.109c-0.147,0 -0.26,0.11 -0.26,0.281Zm0.464,0.001c0,0.129 -0.086,0.204 -0.186,0.204c-0.1,0 -0.185,-0.076 -0.185,-0.205c0,-0.129 0.085,-0.202 0.185,-0.202c0.1,0 0.186,0.076 0.186,0.203Z" style="fill-rule:nonzero;"/></g><g transform="matrix(59.3573,0,0,59.3573,2995.13,2113.52)"><path d="M0.106,0.006c0.033,0 0.06,-0.027 0.06,-0.062c0,-0.035 -0.027,-0.062 -0.06,-0.062c-0.035,-0 -0.062,0.027 -0.062,0.062c0,0.035 0.027,0.062 0.062,0.062Z" style="fill-rule:nonzero;"/></g><g transform="matrix(59.3573,0,0,59.3573,3007.6,2113.52)"><path d="M0.043,-0.276c0,0.17 0.113,0.285 0.259,0.285c0.101,-0 0.172,-0.052 0.205,-0.111l0,0.102l0.092,-0l0,-0.548l-0.092,0l0,0.1c-0.032,-0.057 -0.102,-0.109 -0.204,-0.109c-0.147,0 -0.26,0.11 -0.26,0.281Zm0.464,0.001c0,0.129 -0.086,0.204 -0.186,0.204c-0.1,0 -0.185,-0.076 -0.185,-0.205c0,-0.129 0.085,-0.202 0.185,-0.202c0.1,0 0.186,0.076 0.186,0.203Z" style="fill-rule:nonzero;"/></g><g transform="matrix(59.3573,0,0,59.3573,3047.73,2113.52)"><path d="M0.124,-0.637c0.033,0 0.06,-0.027 0.06,-0.062c0,-0.035 -0.027,-0.062 -0.06,-0.062c-0.035,0 -0.062,0.027 -0.062,0.062c0,0.035 0.027,0.062 0.062,0.062Zm-0.047,0.637l0.091,-0l0,-0.548l-0.091,0l0,0.548Z" style="fill-rule:nonzero;"/></g></g><path d="M19.727,34.169l-19.727,-34.169l13.152,0l13.151,22.779l-6.576,11.39Z" style="fill:#001a89;"/></g></svg>